<svg xmlns="http://www.w3.org/2000/svg" xmlns:xlink="http://www.w3.org/1999/xlink" height="512" viewBox="0 0 512 512" width="512"><clipPath id="a"><path d="m0 0h512v512h-512z"/></clipPath><g clip-path="url(#a)"><path d="m199.974 162.663h-29.094v-103.277h-52.786v-29.095h81.88z" fill="#41b883" transform="translate(4.436 .294)"/><path d="m277.631 163.784h-29.095v-96.352h65.38v29.095h-36.285z" fill="#00ecce" transform="translate(.5 -.827)"/><path d="m402.488 216.489h-29.095v-35.612h-65.085v-29.095h94.18z" fill="#00ecce" transform="translate(-1.304 -3.372)"/><path d="m308.308 314.926h131.811v29.095h-131.811z" fill="#00ecce" transform="translate(-1.304 -8.295)"/><path d="m248.536 329.926h29.095v107.053h-29.095z" fill="#00ecce" transform="translate(.5 -8.748)"/><g fill="#41b883"><path d="m277.631 163.784h-29.095v-96.352h65.38v29.095h-36.285z" transform="translate(.5 -.827)"/><path d="m402.488 216.489h-29.095v-35.612h-65.085v-29.095h94.18z" transform="translate(-1.304 -3.372)"/><path d="m308.308 314.926h131.811v29.095h-131.811z" transform="translate(-1.304 -8.295)"/><path d="m248.536 329.926h29.095v107.053h-29.095z" transform="translate(.5 -8.748)"/><path d="m105.808 396.128h-29.095v-81.2h107.465v29.095h-78.37z" transform="translate(5.685 -8.295)"/><path d="m182.659 261.22h-156.278v-68.578h29.095v39.483h127.183z" transform="translate(7.204 -4.605)"/></g><path d="m172.522 151.782h146.236v187.318h-146.236z" fill="#e7dfdd" transform="translate(2.794 -3.372)"/><circle cx="40.132" cy="40.132" fill="#34495e" r="40.132" transform="translate(56.813 5)"/><path d="m40.132 125.4a40.132 40.132 0 1 0 40.132 40.131 40.176 40.176 0 0 0 -40.132-40.131z" fill="#34495e" transform="translate(8 -2.576)"/><circle cx="40.132" cy="40.132" fill="#00cbb1" r="40.132" transform="translate(299.868 41.02)"/><ellipse cx="40.131" cy="40.132" fill="#00cbb1" rx="40.131" ry="40.132" transform="matrix(.987 -.16 .16 .987 340.53 205.897)"/><circle cx="40.132" cy="40.132" fill="#00cbb1" r="40.132" transform="matrix(.38290917 -.923786 .923786 .38290917 211.266 475.64)"/><circle cx="40.132" cy="40.132" fill="#34495e" r="40.132" transform="translate(56.813 373.286)"/><circle cx="40.132" cy="40.132" fill="#00cbb1" r="40.132" transform="translate(424.268 281.046)"/><circle cx="40.132" cy="40.132" fill="#34495e" r="40.132" transform="translate(299.868 41.02)"/><ellipse cx="40.131" cy="40.132" fill="#34495e" rx="40.131" ry="40.132" transform="matrix(.987 -.16 .16 .987 340.53 205.897)"/><circle cx="40.132" cy="40.132" fill="#34495e" r="40.132" transform="matrix(.38290917 -.923786 .923786 .38290917 211.266 475.64)"/><circle cx="40.132" cy="40.132" fill="#34495e" r="40.132" transform="translate(424.268 281.046)"/><g fill="#41b883" transform="translate(301.965 678.188)"><path d="m-53.01989746-356.80480957-4.33013153-7.50012207-88.30979157-152.95861816-4.33007812-7.49993897h8.66021728 67.91578675 2.88678741l1.44336701 2.5 16.06384277 27.82391357 16.06384277-27.82391357 1.44336701-2.5h2.88679123 67.91578674 8.66021347l-4.33008194 7.49993897-88.30978775 152.95861816z"/><path d="m-141.32969666-519.76348877 88.3097992 152.95855713 88.30979919-152.95855713h-67.915802l-20.39399719 35.32406616-20.39399719-35.32406616zm-17.32043457-10h17.32043457 67.91580201 5.77355957l2.88673401 5.00006104 11.73370361 20.32373046 11.73370361-20.32373046 2.88672638-5.00006104h5.7735672 67.915802 17.32043457l-8.66017151 14.99993897-88.30979537 152.95855712-8.66026688 15.00018311-8.66026688-15.00018311-88.30979538-152.95855712z" fill="#e7dfdd"/></g><path d="m-52.4 0-20.392 35.324-20.394-35.324h-67.914l88.31 152.958 88.308-152.958z" fill="#41b883" transform="translate(321.736 158.424)"/><path d="m-35.371 0-20.394 35.324-20.394-35.324h-32.592l52.986 91.773 52.986-91.773z" fill="#34495e" transform="translate(304.71 158.424)"/></g></svg>
